<svg width="20" height="20" viewBox="0 0 20 20" fill="none" xmlns="http://www.w3.org/2000/svg">
<path d="M4.26819 14.8713H15.7389C16.5155 14.8713 17 14.4032 17 13.712C17 12.8946 16.3445 12.2109 15.6891 11.5866C15.1618 11.0813 15.0478 10.0037 14.9267 8.91129C14.7771 6.2954 13.972 4.4078 12.1766 3.73154C11.8631 2.74315 11.0509 2 10.0036 2C8.94911 2 8.14402 2.74315 7.83053 3.73154C6.02799 4.4078 5.2229 6.2954 5.07328 8.91129C4.95216 10.0037 4.84529 11.0813 4.31807 11.5866C3.65547 12.2109 3 12.8946 3 13.712C3 14.4032 3.4916 14.8713 4.26819 14.8713ZM10.0036 18C11.3074 18 12.255 17.0413 12.3476 15.9192H7.65242C7.74504 17.0413 8.69975 18 10.0036 18Z" fill="#B9BEC0"/>
</svg>
