<svg width="16" height="16" viewBox="0 0 16 16" fill="none" xmlns="http://www.w3.org/2000/svg">
<path fill-rule="evenodd" clip-rule="evenodd" d="M6.99812 4H9V3H6.99078C6.99443 3 6.99673 3.5 6.99812 4ZM11 4V2.99896C11 1.89309 10.1114 1 9.00922 1H6.99078C5.89545 1 5 1.89821 5 2.99896V4H3.875C3.39175 4 3 4.44772 3 5C3 5.55228 3.39175 6 3.875 6H12.125C12.6082 6 13 5.55228 13 5C13 4.44772 12.6082 4 12.125 4H11ZM3.00496 8.0995L3.50038 12.0999C3.66206 13.7167 4.87526 15 6.5 15H9.50038C11.1216 15 12.338 13.7201 12.5 12.0999L12.995 8.0995C13.05 7.54996 12.649 7.05992 12.0995 7.00496C11.55 6.95001 11.0599 7.35095 11.005 7.9005L10.505 12C10.4451 12.5987 10.0933 13 9.50038 13H6.5C5.90578 13 5.55516 12.5974 5.49542 12L4.99504 7.9005C4.94008 7.35095 4.45004 6.95001 3.90049 7.00496C3.35095 7.05992 2.95001 7.54996 3.00496 8.0995Z" fill="#757A7C"/>
</svg>
