<svg width="16" height="16" viewBox="0 0 16 16" fill="none" xmlns="http://www.w3.org/2000/svg">
<path d="M4 7.99723C4 8.23572 4.09677 8.44093 4.28463 8.62396L8.65655 12.7781C8.80455 12.9224 8.98672 13 9.20304 13C9.64706 13 10 12.6561 10 12.2291C10 12.0183 9.91461 11.8186 9.75522 11.6633L5.88425 8.00277L9.75522 4.33666C9.90892 4.18136 10 3.98724 10 3.77094C10 3.34387 9.64706 3 9.20304 3C8.98672 3 8.80455 3.07765 8.65085 3.22185L4.28463 7.37604C4.09108 7.57016 4 7.76428 4 7.99723Z" fill="#757A7C"/>
</svg>
