<svg width="16" height="16" viewBox="0 0 16 16" fill="none" xmlns="http://www.w3.org/2000/svg">
<path fill-rule="evenodd" clip-rule="evenodd" d="M4.21127 4.21127C4.49296 3.92958 4.94967 3.92958 5.23136 4.21127L8 6.97991L10.7686 4.21127C11.0503 3.92958 11.507 3.92958 11.7887 4.21127C12.0704 4.49296 12.0704 4.94967 11.7887 5.23136L9.02009 8L11.7887 10.7686C12.0704 11.0503 12.0704 11.507 11.7887 11.7887C11.507 12.0704 11.0503 12.0704 10.7686 11.7887L8 9.02009L5.23136 11.7887C4.94967 12.0704 4.49296 12.0704 4.21127 11.7887C3.92958 11.507 3.92958 11.0503 4.21127 10.7686L6.97991 8L4.21127 5.23136C3.92958 4.94967 3.92958 4.49296 4.21127 4.21127Z" fill="#B9BEC0"/>
</svg>
