<svg width="16" height="16" viewBox="0 0 16 16" fill="none" xmlns="http://www.w3.org/2000/svg">
<path d="M7.41686 10.3925L8.44812 9.36581C7.93249 9.30606 7.47656 9.10507 7.18889 8.81718C6.32589 7.94806 6.32046 6.74215 7.18347 5.87846L9.04517 4.02071C9.90818 3.15702 11.1131 3.15702 11.9761 4.02071C12.8446 4.88983 12.8446 6.09574 11.987 6.954L11.3194 7.6167C11.5365 8.11102 11.6342 8.75743 11.4659 9.31149L12.9531 7.83398C14.3535 6.44882 14.348 4.45527 12.9423 3.05381C11.5365 1.64692 9.5608 1.65235 8.16588 3.04838L6.21733 4.99847C4.82241 6.3945 4.82241 8.37718 6.22276 9.77864C6.49415 10.0502 6.91751 10.2893 7.41686 10.3925ZM8.58382 5.60686L7.55255 6.63894C8.06818 6.69869 8.51868 6.89968 8.80635 7.18757C9.67478 8.0567 9.67478 9.2626 8.81721 10.1209L6.95007 11.984C6.08707 12.8477 4.88212 12.8477 4.02454 11.984C3.15068 11.1149 3.15068 9.90901 4.01368 9.04532L4.67586 8.38262C4.46418 7.8883 4.36649 7.24733 4.53474 6.68783L3.04755 8.16534C1.6472 9.55593 1.65263 11.544 3.05298 12.9455C4.45876 14.3524 6.43987 14.347 7.82936 12.9564L9.78334 11.0008C11.1728 9.60482 11.1783 7.62214 9.77248 6.22068C9.50653 5.94907 9.08316 5.7155 8.58382 5.60686Z" fill="#9DA2A4"/>
</svg>
