<svg width="106" height="16" viewBox="0 0 106 16" fill="none" xmlns="http://www.w3.org/2000/svg">
<path d="M2 1.63885V14.6714H4.22197V7.73533L4.18554 4.30378L8.13774 12.2986H9.57655L13.5287 4.30378L13.4923 7.71708V14.6714H15.7143V1.63885H12.3813L9.70404 7.07823L8.90268 8.84876L8.04667 7.05997L5.35117 1.63885H2Z" fill="#202426"/>
<path d="M23.3152 15C25.355 15 27.1035 13.9778 27.8502 12.3716L25.9378 11.5319C25.4825 12.4446 24.5172 13.0287 23.388 13.0287C21.7853 13.0287 20.729 12.0065 20.6561 10.4368H27.7045C27.7409 10.1812 27.7591 9.81617 27.7591 9.52412C27.7591 6.47588 26.0107 4.4133 23.2423 4.4133C20.2008 4.4133 18.2338 6.5854 18.2338 9.79791C18.2338 12.9374 20.219 15 23.3152 15ZM25.4279 8.70274H20.6561C20.8382 7.2425 21.7671 6.32986 23.0966 6.32986C24.5537 6.32986 25.4279 7.2425 25.4279 8.70274Z" fill="#202426"/>
<path d="M34.2658 14.6714H37.4348V12.6271H34.6119C33.8287 12.6271 33.3916 12.2803 33.3916 11.0756V6.82269H37.2527V4.77836H33.3916V2.05867H31.8799L31.1514 4.77836H28.9659V6.82269H31.0968V11.3129C31.0968 13.8318 32.2806 14.6714 34.2658 14.6714Z" fill="#202426"/>
<path d="M41.9999 15C43.7665 15 44.659 14.0874 45.1325 13.3755C45.4421 14.2151 45.9703 14.6714 47.1359 14.6714H48.7386V12.6271H47.8644C47.5548 12.6271 47.318 12.4263 47.318 11.97V8.42894C47.318 5.72751 45.4239 4.4133 43.038 4.4133C40.8707 4.4133 39.614 5.39896 38.9583 6.34811L40.5975 7.58931C40.9982 7.02347 41.7631 6.54889 42.9652 6.54889C44.0944 6.54889 45.0232 7.05997 45.0232 8.62973V9.01304H42.0363C39.9782 9.01304 38.7398 10.0717 38.7398 11.8787C38.7398 13.5763 39.8508 15 41.9999 15ZM42.7102 13.0834C41.5628 13.0834 41.1074 12.5724 41.1074 11.8605C41.1074 11.1121 41.672 10.6558 42.7102 10.6558H45.0232V12.0613C44.0761 12.9009 43.4387 13.0834 42.7102 13.0834Z" fill="#202426"/>
<path d="M72.6615 15C75.3206 15 77.1601 12.9374 77.1601 9.74315C77.1601 6.69491 75.4845 4.43155 72.7708 4.43155C71.2591 4.43155 70.221 5.21643 69.7839 5.91004V4.95026C68.521 4.95026 67.4708 8.03646 67.4708 8.03646C67.4708 11.0152 67.4708 14.6714 67.4708 14.6714H69.4378V13.558C70.1299 14.3977 71.3502 15 72.6615 15ZM72.2244 13.0834C70.3667 13.0834 69.6746 11.6597 69.6746 9.74315C69.6746 7.37027 70.7491 6.38461 72.2244 6.38461C73.6996 6.38461 74.7742 7.37027 74.7742 9.74315C74.7742 11.6597 74.0821 13.0834 72.2244 13.0834Z" fill="#202426"/>
<path d="M79.5098 1V3.2086H81.8228V1H79.5098ZM81.8046 14.6714H83.2799V12.6271H82.4967C81.9139 12.6271 81.8593 12.5176 81.8593 12.0978V4.77836H79.5462V12.5359C79.5462 13.7405 80.2747 14.6532 81.8046 14.6714Z" fill="#202426"/>
<path d="M88.0188 15C89.7854 15 90.6779 14.0874 91.1514 13.3755C91.461 14.2151 91.9892 14.6714 93.1548 14.6714H94.7575V12.6271H93.8833C93.5737 12.6271 93.3369 12.4263 93.3369 11.97V8.42894C93.3369 5.72751 91.4428 4.4133 89.0569 4.4133C86.8896 4.4133 85.6329 5.39896 84.9772 6.34811L86.6164 7.58931C87.0171 7.02347 87.782 6.54889 88.9841 6.54889C90.1133 6.54889 91.0421 7.05997 91.0421 8.62973V9.01304H88.0552C85.9971 9.01304 84.7587 10.0717 84.7587 11.8787C84.7587 13.5763 85.8696 15 88.0188 15ZM88.7291 13.0834C87.5817 13.0834 87.1264 12.5724 87.1264 11.8605C87.1264 11.1121 87.6909 10.6558 88.7291 10.6558H91.0421V12.0613C90.095 12.9009 89.4576 13.0834 88.7291 13.0834Z" fill="#202426"/>
<path d="M99.9385 15C102.306 15 104 14.0326 104 12.116C104 10.0169 102.579 9.50587 100.339 8.83051C98.8458 8.39244 98.1901 8.26467 98.1901 7.46154C98.1901 6.71317 98.8093 6.2751 99.8657 6.2751C100.886 6.2751 101.596 6.67666 101.887 7.66232L103.763 7.29726C103.49 5.59974 102.051 4.4133 99.7746 4.4133C97.498 4.4133 95.9317 5.56323 95.9317 7.35202C95.9317 9.3781 97.3887 10.1265 99.3011 10.6558C100.685 11.0391 101.76 11.1851 101.76 12.043C101.76 12.6819 101.104 13.1017 99.9385 13.1017C98.7911 13.1017 98.0808 12.7549 97.8076 11.8057L95.7314 12.2256C96.0956 13.8683 97.3705 15 99.9385 15Z" fill="#202426"/>
<path fill-rule="evenodd" clip-rule="evenodd" d="M52.8176 14.3644C52.0839 14.7877 51.2085 15 50.1839 15V12.9732C50.9266 12.9732 51.4399 12.8213 51.8108 12.6073C52.1804 12.394 52.4735 12.0816 52.7186 11.6574C53.241 10.7531 53.4718 9.49564 53.7335 7.98589C53.7392 7.95279 53.745 7.91954 53.7508 7.88617C53.99 6.50421 54.2684 4.89582 54.9909 3.64517C55.377 2.97685 55.9044 2.37875 56.6394 1.9547C57.1951 1.63405 57.6574 1.43447 58.2942 1.35651C58.6646 1.31118 58.9685 1.62154 58.9685 1.99466C58.9685 2.74091 58.3303 3.31403 57.6852 3.68915C57.6724 3.6966 57.6594 3.70414 57.6462 3.71175C57.2765 3.92503 56.9834 4.23742 56.7383 4.66167C56.2159 5.56597 55.9851 6.82342 55.7234 8.33317C55.7177 8.36627 55.7119 8.39951 55.7062 8.43289C55.467 9.81485 55.1885 11.4232 54.466 12.6739C54.0799 13.3422 53.5525 13.9403 52.8176 14.3644Z" fill="#202426"/>
<path fill-rule="evenodd" clip-rule="evenodd" d="M57.8671 14.3644C57.3108 14.6853 56.8406 14.885 56.1991 14.9628C55.8287 15.0077 55.5248 14.6975 55.5248 14.3244C55.5248 13.5781 56.165 13.0107 56.8105 12.6361C56.8268 12.6267 56.8434 12.617 56.8603 12.6073C57.2299 12.394 57.523 12.0816 57.7681 11.6574C58.2905 10.7531 58.5213 9.49564 58.783 7.98589C58.7887 7.95279 58.7945 7.91954 58.8003 7.88617C59.0395 6.50421 59.3179 4.89582 60.0404 3.64517C60.4265 2.97685 60.9539 2.37875 61.6889 1.9547C62.2446 1.63405 62.7069 1.43447 63.3437 1.35651C63.7141 1.31118 64.018 1.62154 64.018 1.99466C64.018 2.74091 63.3798 3.31403 62.7347 3.68915C62.7219 3.6966 62.7089 3.70414 62.6957 3.71175C62.326 3.92503 62.0329 4.23742 61.7878 4.66167C61.2654 5.56597 61.0346 6.82342 60.7729 8.33317C60.7672 8.36627 60.7614 8.39951 60.7557 8.43289C60.5165 9.81485 60.2381 11.4232 59.5155 12.6739C59.1294 13.3422 58.602 13.9403 57.8671 14.3644Z" fill="#202426"/>
<path fill-rule="evenodd" clip-rule="evenodd" d="M62.9166 14.3644C62.3603 14.6853 61.8901 14.885 61.2486 14.9628C60.8782 15.0077 60.5743 14.6975 60.5743 14.3244C60.5743 13.5781 61.2146 13.0107 61.86 12.6361C61.8763 12.6267 61.8929 12.617 61.9098 12.6073C62.2794 12.394 62.5725 12.0816 62.8176 11.6574C63.34 10.7531 63.5709 9.49564 63.8325 7.98589C63.8382 7.95279 63.844 7.91954 63.8498 7.88617C64.089 6.50421 64.3674 4.89582 65.0899 3.64517C65.476 2.97685 66.0034 2.37875 66.7384 1.9547C67.3055 1.62744 67.9574 1.42629 68.6974 1.35185C69.0687 1.3145 69.372 1.62154 69.372 1.99466C69.372 2.74091 68.7402 3.28982 68.047 3.56606C67.9368 3.60994 67.8367 3.65896 67.7452 3.71175C67.3755 3.92503 67.0824 4.23742 66.8373 4.66167C66.3149 5.56597 66.0841 6.82342 65.8224 8.33317C65.8167 8.36627 65.8109 8.39951 65.8052 8.43289C65.566 9.81485 65.2876 11.4232 64.565 12.6739C64.179 13.3422 63.6515 13.9403 62.9166 14.3644Z" fill="#202426"/>
</svg>
