<svg width="20" height="20" viewBox="0 0 20 20" fill="none" xmlns="http://www.w3.org/2000/svg">
<path d="M5.8723 19C6.22842 19 6.5036 18.8417 6.92446 18.4697L9.95144 15.8184H15.1151C17.5674 15.8264 19 14.3939 19 12.0275V5.79888C19 3.4325 17.5674 2 15.1151 2H4.88489C2.43255 2 1 3.42458 1 5.79888V12.0275C1 14.4018 2.4973 15.8184 4.77968 15.8184H5.05486V18.1057C5.05486 18.6518 5.36241 19 5.8723 19ZM7.22392 9.24953C7.22392 9.93808 6.60881 10.5237 5.91277 10.5237C5.20054 10.5237 4.60162 9.93808 4.60162 9.24953C4.60162 8.56099 5.19245 7.96741 5.91277 7.96741C6.60881 7.96741 7.22392 8.56099 7.22392 9.24953ZM11.3435 9.24953C11.3435 9.93808 10.7446 10.5237 10.0405 10.5237C9.33633 10.5237 8.73741 9.93808 8.73741 9.24953C8.73741 8.56099 9.32824 7.96741 10.0405 7.96741C10.7446 7.96741 11.3435 8.56099 11.3435 9.24953ZM15.4793 9.24953C15.4793 9.93808 14.8804 10.5237 14.1682 10.5237C13.464 10.5237 12.857 9.93808 12.857 9.24953C12.857 8.56099 13.464 7.96741 14.1682 7.96741C14.8804 7.96741 15.4793 8.56099 15.4793 9.24953Z" fill="#B9BEC0"/>
</svg>
