<svg width="19" height="18" viewBox="0 0 19 18" fill="none" xmlns="http://www.w3.org/2000/svg">
<rect opacity="0.5" x="5.9054" y="13.6757" width="4.32432" height="1.72973" rx="0.864865" fill="#757A7C"/>
<path d="M9.80671 2.43243C9.527 2.86932 9.36484 3.3887 9.36484 3.94595C9.36484 4.0187 9.36761 4.0908 9.37304 4.16216H5.47295C4.9953 4.16216 4.60809 4.54938 4.60809 5.02703V15.4054C4.60809 15.8831 4.9953 16.2703 5.47295 16.2703H10.6621C11.1398 16.2703 11.527 15.8831 11.527 15.4054V6.68154C11.7352 6.73073 11.9524 6.75676 12.1757 6.75676C12.5587 6.75676 12.9239 6.68012 13.2567 6.54134V15.4054C13.2567 16.8384 12.0951 18 10.6621 18H5.47295C4.04 18 2.87836 16.8384 2.87836 15.4054V5.02703C2.87836 3.59407 4.04 2.43243 5.47295 2.43243H9.80671Z" fill="#464748"/>
<g filter="url(#filter0_d)">
<path d="M12.1757 5.89189C11.101 5.89189 10.2297 5.02066 10.2297 3.94595C10.2297 2.87123 11.101 2 12.1757 2C13.2504 2 14.1216 2.87123 14.1216 3.94595C14.1216 5.02066 13.2504 5.89189 12.1757 5.89189Z" fill="#FF6A2A"/>
</g>
<defs>
<filter id="filter0_d" x="6.22974" y="0" width="11.8919" height="11.8919" filterUnits="userSpaceOnUse" color-interpolation-filters="sRGB">
<feFlood flood-opacity="0" result="BackgroundImageFix"/>
<feColorMatrix in="SourceAlpha" type="matrix" values="0 0 0 0 0 0 0 0 0 0 0 0 0 0 0 0 0 0 127 0"/>
<feOffset dy="2"/>
<feGaussianBlur stdDeviation="2"/>
<feColorMatrix type="matrix" values="0 0 0 0 1 0 0 0 0 0.415686 0 0 0 0 0.164706 0 0 0 1 0"/>
<feBlend mode="normal" in2="BackgroundImageFix" result="effect1_dropShadow"/>
<feBlend mode="normal" in="SourceGraphic" in2="effect1_dropShadow" result="shape"/>
</filter>
</defs>
</svg>
