<svg width="16" height="16" viewBox="0 0 16 16" fill="none" xmlns="http://www.w3.org/2000/svg">
<path d="M2.38996 14H13.61C15.1498 14 16 13.1397 16 11.5951V4.4049C16 2.85357 15.1498 2 13.61 2H2.38996C0.850209 2 0 2.85357 0 4.4049V11.5951C0 13.1464 0.850209 14 2.38996 14ZM1.79414 4.63523C1.79414 4.06618 2.06862 3.81553 2.59749 3.81553H13.4025C13.9247 3.81553 14.2059 4.06618 14.2059 4.63523V11.1318L11.3473 8.42887C11.0527 8.16467 10.7046 8.02241 10.3498 8.02241C9.98829 8.02241 9.65356 8.15112 9.3523 8.42209L6.33305 11.1522L5.10795 10.0344C4.82008 9.77697 4.51213 9.64825 4.19749 9.64825C3.87615 9.64825 3.62176 9.77019 3.34059 10.0208L1.79414 11.4028V4.63523ZM5.60335 8.74049C6.50711 8.74049 7.2569 7.98854 7.2569 7.06045C7.2569 6.13913 6.50711 5.37363 5.60335 5.37363C4.68619 5.37363 3.9364 6.13913 3.9364 7.06045C3.9364 7.98854 4.68619 8.74049 5.60335 8.74049Z" fill="#9DA2A4"/>
</svg>
