<svg width="24" height="24" viewBox="0 0 24 24" fill="none" xmlns="http://www.w3.org/2000/svg">
<path fill-rule="evenodd" clip-rule="evenodd" d="M8.21628 21.1667C8.63739 21.2369 9.18075 20.652 9.18075 20.652L12.8722 17.162H16.6888C18.9368 17.1697 20.25 15.7794 20.25 13.4826V8.35384C20.25 6.05705 18.9368 4.66669 16.6888 4.66669H7.31115C5.06317 4.66669 3.75 6.04937 3.75 8.35384V13.4826C3.75 15.787 5.12253 17.162 7.2147 17.162H7.46695V20.2987C7.46695 20.8287 7.77455 21.0931 8.21628 21.1667ZM7.41667 9.25002C7.41667 8.74376 7.82707 8.33335 8.33333 8.33335H15.6667C16.1729 8.33335 16.5833 8.74376 16.5833 9.25002C16.5833 9.75628 16.1729 10.1667 15.6667 10.1667H8.33333C7.82707 10.1667 7.41667 9.75628 7.41667 9.25002ZM8.33333 12C7.82707 12 7.41667 12.4104 7.41667 12.9167C7.41667 13.4229 7.82707 13.8334 8.33333 13.8334H12C12.5063 13.8334 12.9167 13.4229 12.9167 12.9167C12.9167 12.4104 12.5063 12 12 12H8.33333Z" fill="#B9BEC0"/>
</svg>
