<svg width="24" height="24" viewBox="0 0 24 24" fill="none" xmlns="http://www.w3.org/2000/svg">
<path opacity="0.5" d="M20 21C20 20.4477 19.5523 20 19 20H5C4.44772 20 4 20.4477 4 21C4 21.5523 4.44772 22 5 22H19C19.5523 22 20 21.5523 20 21Z" fill="#B9BEC0"/>
<path fill-rule="evenodd" clip-rule="evenodd" d="M17.5 6H6.5C5.67157 6 5 6.67157 5 7.5V13.5C5 14.3284 5.67157 15 6.5 15H17.5C18.3284 15 19 14.3284 19 13.5V7.5C19 6.67157 18.3284 6 17.5 6ZM6.5 4C4.567 4 3 5.567 3 7.5V13.5C3 15.433 4.567 17 6.5 17H17.5C19.433 17 21 15.433 21 13.5V7.5C21 5.567 19.433 4 17.5 4H6.5Z" fill="#B9BEC0"/>
</svg>
