<svg width="24" height="24" viewBox="0 0 24 24" fill="none" xmlns="http://www.w3.org/2000/svg">
<rect opacity="0.5" x="12.9167" y="4.66666" width="6.41667" height="6.41667" rx="2.5" fill="#B9BEC0"/>
<path d="M4.66669 15.2083C4.66669 13.9427 5.6927 12.9167 6.95835 12.9167H8.79169C10.0573 12.9167 11.0834 13.9427 11.0834 15.2083V17.0417C11.0834 18.3073 10.0573 19.3333 8.79169 19.3333H6.95835C5.6927 19.3333 4.66669 18.3073 4.66669 17.0417V15.2083Z" fill="#B9BEC0"/>
<path d="M12.9167 15.2083C12.9167 13.9427 13.9427 12.9167 15.2084 12.9167H17.0417C18.3073 12.9167 19.3334 13.9427 19.3334 15.2083V17.0417C19.3334 18.3073 18.3073 19.3333 17.0417 19.3333H15.2084C13.9427 19.3333 12.9167 18.3073 12.9167 17.0417V15.2083Z" fill="#B9BEC0"/>
<path d="M4.66669 6.95832C4.66669 5.69267 5.6927 4.66666 6.95835 4.66666H8.79169C10.0573 4.66666 11.0834 5.69267 11.0834 6.95832V8.79166C11.0834 10.0573 10.0573 11.0833 8.79169 11.0833H6.95835C5.6927 11.0833 4.66669 10.0573 4.66669 8.79166V6.95832Z" fill="#B9BEC0"/>
</svg>
