<svg width="24" height="24" viewBox="0 0 24 24" fill="none" xmlns="http://www.w3.org/2000/svg">
<path fill-rule="evenodd" clip-rule="evenodd" d="M14.9725 5.34278C14.9725 7.37869 16.6254 9.02913 18.6643 9.02913C18.8888 9.02802 19.1127 9.00647 19.3333 8.96474V16.273C19.3333 19.3477 17.5197 21.1667 14.4405 21.1667H7.73414C4.64694 21.1667 2.83331 19.3477 2.83331 16.273V9.57644C2.83331 6.50181 4.64694 4.66669 7.73414 4.66669H15.037C14.9937 4.88944 14.9721 5.11587 14.9725 5.34278ZM13.0541 14.6552L15.6738 11.2747V11.2586C15.8981 10.9573 15.8409 10.5323 15.5448 10.3008C15.4016 10.1902 15.2195 10.1424 15.0403 10.1681C14.861 10.1939 14.6999 10.2912 14.5937 10.4377L12.3851 13.2789L9.8702 11.2989C9.72661 11.187 9.54396 11.1376 9.36347 11.1619C9.18298 11.1861 9.01988 11.2819 8.91099 11.4277L6.20263 14.9208C6.10743 15.0395 6.05618 15.1873 6.05754 15.3394C6.04183 15.6466 6.23586 15.9258 6.52966 16.0185C6.82345 16.1112 7.14291 15.9942 7.30693 15.7338L9.57195 12.804L12.0869 14.776C12.2299 14.8913 12.4138 14.9436 12.5962 14.9208C12.7786 14.898 12.9439 14.8022 13.0541 14.6552Z" fill="#B9BEC0"/>
<path opacity="0.5" d="M18.875 7.41665C20.1406 7.41665 21.1666 6.39063 21.1666 5.12498C21.1666 3.85933 20.1406 2.83331 18.875 2.83331C17.6093 2.83331 16.5833 3.85933 16.5833 5.12498C16.5833 6.39063 17.6093 7.41665 18.875 7.41665Z" fill="#B9BEC0"/>
</svg>
