<svg width="16" height="16" viewBox="0 0 16 16" fill="none" xmlns="http://www.w3.org/2000/svg">
<path d="M16 3.5263C15.4008 3.78904 14.7654 3.96161 14.1147 4.03829C14.8002 3.63154 15.3131 2.99166 15.558 2.23786C14.9138 2.6172 14.2088 2.88419 13.4736 3.02723C13.1665 2.70253 12.7955 2.44381 12.3834 2.26711C11.9713 2.09041 11.527 1.9995 11.078 2C9.26547 2 7.7954 3.45671 7.7954 5.25416C7.7954 5.50916 7.82499 5.75646 7.88015 5.99506C5.15088 5.85886 2.73303 4.56421 1.11352 2.59526C0.821936 3.09186 0.66869 3.65633 0.669467 4.23091C0.669467 5.35979 1.24917 6.35619 2.12976 6.93952C1.60848 6.92323 1.09869 6.78365 0.642889 6.53241C0.642387 6.54608 0.642387 6.55975 0.642387 6.57267C0.642387 8.14967 1.77396 9.4652 3.27612 9.76395C2.99419 9.83953 2.70339 9.87773 2.41133 9.87753C2.19921 9.87753 1.99336 9.85815 1.79327 9.82012C2.21125 11.1125 3.4228 12.0535 4.85978 12.0794C3.69695 12.984 2.261 13.4748 0.7828 13.4727C0.521181 13.4729 0.259782 13.4576 0 13.427C1.50069 14.3832 3.2475 14.8908 5.03153 14.8889C11.07 14.8889 14.3717 9.93072 14.3717 5.63095C14.3717 5.49027 14.3682 5.3491 14.3619 5.20992C15.0046 4.74969 15.5593 4.17956 16 3.5263Z" fill="#1DA1F2"/>
</svg>
