<svg width="16" height="16" viewBox="0 0 16 16" fill="none" xmlns="http://www.w3.org/2000/svg">
<path d="M14.9999 8.15971C15.0005 7.68271 14.9594 7.20655 14.8769 6.73642H8.14157V9.4323H11.9993C11.9203 9.86287 11.7533 10.2733 11.5081 10.6389C11.263 11.0045 10.9448 11.3176 10.5728 11.5594V13.3094H12.8752C14.2232 12.0912 14.9999 10.2898 14.9999 8.15971Z" fill="#4285F4"/>
<path d="M8.14178 15C10.0691 15 11.692 14.3797 12.8754 13.3103L10.5731 11.5604C9.93225 11.9862 9.10694 12.2293 8.14178 12.2293C6.27886 12.2293 4.69769 10.9985 4.13229 9.33994H1.76053V11.1434C2.35497 12.3027 3.26649 13.2772 4.39331 13.9582C5.52015 14.6393 6.8179 14.9999 8.14178 15Z" fill="#34A853"/>
<path d="M4.13227 9.33986C3.83335 8.47076 3.83335 7.5296 4.13227 6.66051V4.85712H1.7605C1.26044 5.83234 1 6.9087 1 8.0002C1 9.09166 1.26044 10.168 1.7605 11.1432L4.13227 9.33986Z" fill="#FBBC04"/>
<path d="M8.14178 3.77119C9.16031 3.75488 10.1444 4.13204 10.8815 4.82114L12.92 2.82331C11.6274 1.63343 9.91501 0.980161 8.14178 1.00046C6.8179 1.00052 5.52015 1.36119 4.39331 2.04222C3.26649 2.72324 2.35497 3.69781 1.76053 4.85711L4.13229 6.66053C4.69769 5.00198 6.27886 3.77119 8.14178 3.77119Z" fill="#EA4335"/>
</svg>
