<svg width="16" height="16" viewBox="0 0 16 16" fill="none" xmlns="http://www.w3.org/2000/svg">
<path fill-rule="evenodd" clip-rule="evenodd" d="M3.00001 6C3.00001 5.44772 3.4503 4.98948 3.9974 5.06494C4.91961 5.19213 5.67567 5.50303 6.43943 5.96989C6.91065 6.25793 7.0056 6.89083 6.68108 7.33771C6.35655 7.7846 5.73784 7.87154 5.26003 7.59456C4.83217 7.34654 4.43452 7.18374 3.99409 7.09222C3.45336 6.97986 3.00001 6.55228 3.00001 6ZM8.75199 9.67498C7.81964 11.0768 6.54047 13 4 13C3.44772 13 3 12.5523 3 12C3 11.4477 3.44772 11 4 11C5.38604 11 6.10741 10.0361 7.16795 8.4453C7.19436 8.40568 7.22104 8.36557 7.24801 8.32502C8.18036 6.92324 9.45953 5 12 5C12.5523 5 13 5.44772 13 6C13 6.55228 12.5523 7 12 7C10.614 7 9.89259 7.96388 8.83205 9.5547C8.80564 9.59432 8.77896 9.63443 8.75199 9.67498ZM13 12C13 12.5523 12.5497 13.0105 12.0026 12.9351C11.0804 12.8079 10.3243 12.497 9.56057 12.0301C9.08935 11.7421 8.9944 11.1092 9.31892 10.6623C9.64345 10.2154 10.2622 10.1285 10.74 10.4054C11.1678 10.6535 11.5655 10.8163 12.0059 10.9078C12.5466 11.0201 13 11.4477 13 12Z" fill="#464748"/>
</svg>
